REM MD5 8ece62e39379140e3f71b2ae7fa8292c
FILE "Yuukyuu Gensoukyoku Ensemble (Japan).bin" BINARY
  TRACK 01 MODE2/2352
    INDEX 01 00:00:00
  TRACK 02 AUDIO
    INDEX 00 57:04:10
    INDEX 01 57:06:10
  TRACK 03 AUDIO
    INDEX 00 61:45:50
    INDEX 01 61:47:50
  TRACK 04 AUDIO
    INDEX 00 63:48:27
    INDEX 01 63:50:27
  TRACK 05 AUDIO
    INDEX 00 65:52:50
    INDEX 01 65:54:50
REM LEADOUT 69:26:40
